<?xml version="1.0" encoding="us-ascii" standalone="no"?><svg xmlns="http://www.w3.org/2000/svg" xmlns:xlink="http://www.w3.org/1999/xlink" contentStyleType="text/css" height="912px" preserveAspectRatio="none" style="width:1370px;height:912px;background:#FFFFFF;" version="1.1" viewBox="0 0 1370 912" width="1370px" zoomAndPan="magnify"><defs/><g><text fill="#000000" font-family="sans-serif" font-size="14" font-weight="bold" lengthAdjust="spacing" textLength="192" x="582.25" y="23.5352">gh-aw-dataset-builder ER</text><!--class repository--><g id="elem_repository"><rect codeLine="10" fill="#F1F1F1" height="240.3477" id="repository" rx="2.5" ry="2.5" style="stroke:#181818;stroke-width:0.5;" width="199" x="84" y="44.4883"/><text fill="#000000" font-family="sans-serif" font-size="14" lengthAdjust="spacing" textLength="70" x="148.5" y="63.0234">repository</text><line style="stroke:#181818;stroke-width:0.5;" x1="85" x2="282" y1="70.9766" y2="70.9766"/><ellipse cx="95" cy="84.7207" fill="#000000" rx="3" ry="3" style="stroke:#000000;stroke-width:1.0;"/><text fill="#000000" font-family="sans-serif" font-size="14" lengthAdjust="spacing" textLength="173" x="104" y="88.5117">repository_id : int64 &#171;PK&#187;</text><line style="stroke:#181818;stroke-width:1.0;" x1="85" x2="282" y1="95.4648" y2="95.4648"/><text fill="#000000" font-family="sans-serif" font-size="14" lengthAdjust="spacing" textLength="71" x="90" y="113">url : string</text><text fill="#000000" font-family="sans-serif" font-size="14" lengthAdjust="spacing" textLength="99" x="90" y="129.4883">license : string</text><text fill="#000000" font-family="sans-serif" font-size="14" lengthAdjust="spacing" textLength="158" x="90" y="145.9766">repo_full_name : string</text><text fill="#000000" font-family="sans-serif" font-size="14" lengthAdjust="spacing" textLength="134" x="90" y="162.4648">repo_owner : string</text><text fill="#000000" font-family="sans-serif" font-size="14" lengthAdjust="spacing" textLength="129" x="90" y="178.9531">repo_name : string</text><text fill="#000000" font-family="sans-serif" font-size="14" lengthAdjust="spacing" textLength="157" x="90" y="195.4414">main_language : string</text><text fill="#000000" font-family="sans-serif" font-size="14" lengthAdjust="spacing" textLength="83" x="90" y="211.9297">forks : int64</text><text fill="#000000" font-family="sans-serif" font-size="14" lengthAdjust="spacing" textLength="81" x="90" y="228.418">stars : int64</text><text fill="#000000" font-family="sans-serif" font-size="14" lengthAdjust="spacing" textLength="123" x="90" y="244.9063">created_at : string</text><text fill="#000000" font-family="sans-serif" font-size="14" lengthAdjust="spacing" textLength="129" x="90" y="261.3945">updated_at : string</text><text fill="#000000" font-family="sans-serif" font-size="14" lengthAdjust="spacing" textLength="123" x="90" y="277.8828">pushed_at : string</text></g><!--class source_markdown_file_history--><g id="elem_source_markdown_file_history"><rect codeLine="26" fill="#F1F1F1" height="75.4648" id="source_markdown_file_history" rx="2.5" ry="2.5" style="stroke:#181818;stroke-width:0.5;" width="337" x="677" y="377.8083"/><text fill="#000000" font-family="sans-serif" font-size="14" lengthAdjust="spacing" textLength="208" x="741.5" y="396.3434">source_markdown_file_history</text><line style="stroke:#181818;stroke-width:0.5;" x1="678" x2="1013" y1="404.2966" y2="404.2966"/><ellipse cx="688" cy="418.0407" fill="#000000" rx="3" ry="3" style="stroke:#000000;stroke-width:1.0;"/><text fill="#000000" font-family="sans-serif" font-size="14" lengthAdjust="spacing" textLength="311" x="697" y="421.8317">source_markdown_file_history_id : int64 &#171;PK&#187;</text><line style="stroke:#181818;stroke-width:1.0;" x1="678" x2="1013" y1="428.7848" y2="428.7848"/><text fill="#000000" font-family="sans-serif" font-size="14" lengthAdjust="spacing" textLength="144" x="683" y="446.32">version_count : int64</text></g><!--class source_markdown_file_version--><g id="elem_source_markdown_file_version"><rect codeLine="32" fill="#F1F1F1" height="174.3945" id="source_markdown_file_version" rx="2.5" ry="2.5" style="stroke:#181818;stroke-width:0.5;" width="396" x="316.5" y="546.2583"/><text fill="#000000" font-family="sans-serif" font-size="14" lengthAdjust="spacing" textLength="211" x="409" y="564.7934">source_markdown_file_version</text><line style="stroke:#181818;stroke-width:0.5;" x1="317.5" x2="711.5" y1="572.7466" y2="572.7466"/><ellipse cx="327.5" cy="586.4907" fill="#000000" rx="3" ry="3" style="stroke:#000000;stroke-width:1.0;"/><text fill="#000000" font-family="sans-serif" font-size="14" lengthAdjust="spacing" textLength="314" x="336.5" y="590.2817">source_markdown_file_version_id : int64 &#171;PK&#187;</text><line style="stroke:#181818;stroke-width:1.0;" x1="317.5" x2="711.5" y1="597.2348" y2="597.2348"/><ellipse cx="327.5" cy="610.979" fill="#000000" rx="3" ry="3" style="stroke:#000000;stroke-width:1.0;"/><text fill="#000000" font-family="sans-serif" font-size="14" lengthAdjust="spacing" textLength="311" x="336.5" y="614.77">source_markdown_file_history_id : int64 &#171;FK&#187;</text><ellipse cx="327.5" cy="627.4673" fill="#000000" rx="3" ry="3" style="stroke:#000000;stroke-width:1.0;"/><text fill="#000000" font-family="sans-serif" font-size="14" lengthAdjust="spacing" textLength="327" x="336.5" y="631.2583">source_markdown_file_snapshot_id : int64 &#171;FK&#187;</text><text fill="#000000" font-family="sans-serif" font-size="14" lengthAdjust="spacing" textLength="134" x="336.5" y="647.7466">commit_sha : string</text><text fill="#000000" font-family="sans-serif" font-size="14" lengthAdjust="spacing" textLength="145" x="336.5" y="664.2348">committed_at : string</text><text fill="#000000" font-family="sans-serif" font-size="14" lengthAdjust="spacing" textLength="79" x="336.5" y="680.7231">rank : int64</text><text fill="#000000" font-family="sans-serif" font-size="14" lengthAdjust="spacing" textLength="370" x="336.5" y="697.2114">predecessor_source_markdown_file_version_id : int64</text><text fill="#000000" font-family="sans-serif" font-size="14" lengthAdjust="spacing" textLength="353" x="336.5" y="713.6997">successor_source_markdown_file_version_id : int64</text></g><!--class source_markdown_file_snapshot--><g id="elem_source_markdown_file_snapshot"><rect codeLine="44" fill="#F1F1F1" height="141.418" id="source_markdown_file_snapshot" rx="2.5" ry="2.5" style="stroke:#181818;stroke-width:0.5;" width="353" x="7" y="344.8383"/><text fill="#000000" font-family="sans-serif" font-size="14" lengthAdjust="spacing" textLength="224" x="71.5" y="363.3734">source_markdown_file_snapshot</text><line style="stroke:#181818;stroke-width:0.5;" x1="8" x2="359" y1="371.3266" y2="371.3266"/><ellipse cx="18" cy="385.0707" fill="#000000" rx="3" ry="3" style="stroke:#000000;stroke-width:1.0;"/><text fill="#000000" font-family="sans-serif" font-size="14" lengthAdjust="spacing" textLength="327" x="27" y="388.8617">source_markdown_file_snapshot_id : int64 &#171;PK&#187;</text><line style="stroke:#181818;stroke-width:1.0;" x1="8" x2="359" y1="395.8148" y2="395.8148"/><ellipse cx="18" cy="409.559" fill="#000000" rx="3" ry="3" style="stroke:#000000;stroke-width:1.0;"/><text fill="#000000" font-family="sans-serif" font-size="14" lengthAdjust="spacing" textLength="173" x="27" y="413.35">repository_id : int64 &#171;FK&#187;</text><text fill="#000000" font-family="sans-serif" font-size="14" lengthAdjust="spacing" textLength="83" x="27" y="429.8383">path : string</text><text fill="#000000" font-family="sans-serif" font-size="14" lengthAdjust="spacing" textLength="104" x="27" y="446.3266">content : string</text><text fill="#000000" font-family="sans-serif" font-size="14" lengthAdjust="spacing" textLength="131" x="27" y="462.8148">frontmatter : string</text><text fill="#000000" font-family="sans-serif" font-size="14" lengthAdjust="spacing" textLength="86" x="27" y="479.3031">body : string</text></g><!--class lock_file_snapshot--><g id="elem_lock_file_snapshot"><rect codeLine="54" fill="#F1F1F1" height="124.9297" id="lock_file_snapshot" rx="2.5" ry="2.5" style="stroke:#181818;stroke-width:0.5;" width="340" x="344.5" y="780.6483"/><text fill="#000000" font-family="sans-serif" font-size="14" lengthAdjust="spacing" textLength="126" x="451.5" y="799.1834">lock_file_snapshot</text><line style="stroke:#181818;stroke-width:0.5;" x1="345.5" x2="683.5" y1="807.1366" y2="807.1366"/><ellipse cx="355.5" cy="820.8807" fill="#000000" rx="3" ry="3" style="stroke:#000000;stroke-width:1.0;"/><text fill="#000000" font-family="sans-serif" font-size="14" lengthAdjust="spacing" textLength="229" x="364.5" y="824.6717">lock_file_snapshot_id : int64 &#171;PK&#187;</text><line style="stroke:#181818;stroke-width:1.0;" x1="345.5" x2="683.5" y1="831.6248" y2="831.6248"/><ellipse cx="355.5" cy="845.369" fill="#000000" rx="3" ry="3" style="stroke:#000000;stroke-width:1.0;"/><text fill="#000000" font-family="sans-serif" font-size="14" lengthAdjust="spacing" textLength="314" x="364.5" y="849.16">source_markdown_file_version_id : int64 &#171;FK&#187;</text><text fill="#000000" font-family="sans-serif" font-size="14" lengthAdjust="spacing" textLength="83" x="364.5" y="865.6483">path : string</text><text fill="#000000" font-family="sans-serif" font-size="14" lengthAdjust="spacing" textLength="104" x="364.5" y="882.1366">content : string</text><text fill="#000000" font-family="sans-serif" font-size="14" lengthAdjust="spacing" textLength="104" x="364.5" y="898.6248">file_sha : string</text></g><g id="elem_GMN11"><path d="M318,129.0383 L318,160.6583 L283.47,164.6583 L318,168.6583 L318,200.2805 A0,0 0 0 0 318,200.2805 L605,200.2805 A0,0 0 0 0 605,200.2805 L605,139.0383 L595,129.0383 L318,129.0383 A0,0 0 0 0 318,129.0383 " fill="#FEFFDD" style="stroke:#181818;stroke-width:0.5;"/><path d="M595,129.0383 L595,139.0383 L605,139.0383 L595,129.0383 " fill="#FEFFDD" style="stroke:#181818;stroke-width:0.5;"/><text fill="#000000" font-family="sans-serif" font-size="13" lengthAdjust="spacing" textLength="247" x="324" y="146.6066">repository_id is the internal dataset PK.</text><text fill="#000000" font-family="sans-serif" font-size="13" lengthAdjust="spacing" textLength="4" x="324" y="161.9172">&#160;</text><text fill="#000000" font-family="sans-serif" font-size="13" lengthAdjust="spacing" textLength="266" x="324" y="177.2277">created_at, updated_at, and pushed_at are</text><text fill="#000000" font-family="sans-serif" font-size="13" lengthAdjust="spacing" textLength="218" x="324" y="192.5383">GitHub repository API timestamps.</text></g><g id="elem_GMN14"><path d="M1049.5,395.2383 L1049.5,411.5483 L1014.37,415.5483 L1049.5,419.5483 L1049.5,435.8594 A0,0 0 0 0 1049.5,435.8594 L1363.5,435.8594 A0,0 0 0 0 1363.5,435.8594 L1363.5,405.2383 L1353.5,395.2383 L1049.5,395.2383 A0,0 0 0 0 1049.5,395.2383 " fill="#FEFFDD" style="stroke:#181818;stroke-width:0.5;"/><path d="M1353.5,395.2383 L1353.5,405.2383 L1363.5,405.2383 L1353.5,395.2383 " fill="#FEFFDD" style="stroke:#181818;stroke-width:0.5;"/><text fill="#000000" font-family="sans-serif" font-size="13" lengthAdjust="spacing" textLength="202" x="1055.5" y="412.8066">source_history groups versions.</text><text fill="#000000" font-family="sans-serif" font-size="13" lengthAdjust="spacing" textLength="293" x="1055.5" y="428.1172">Path is obtained through version -&gt; snapshot.</text></g><g id="elem_GMN17"><path d="M395.5,395.2383 L395.5,411.5483 L360.32,415.5483 L395.5,419.5483 L395.5,435.8594 A0,0 0 0 0 395.5,435.8594 L641.5,435.8594 A0,0 0 0 0 641.5,435.8594 L641.5,405.2383 L631.5,395.2383 L395.5,395.2383 A0,0 0 0 0 395.5,395.2383 " fill="#FEFFDD" style="stroke:#181818;stroke-width:0.5;"/><path d="M631.5,395.2383 L631.5,405.2383 L641.5,405.2383 L631.5,395.2383 " fill="#FEFFDD" style="stroke:#181818;stroke-width:0.5;"/><text fill="#000000" font-family="sans-serif" font-size="13" lengthAdjust="spacing" textLength="225" x="401.5" y="412.8066">First observable source_history fact</text><text fill="#000000" font-family="sans-serif" font-size="13" lengthAdjust="spacing" textLength="102" x="401.5" y="428.1172">from repository.</text></g><g id="elem_GMN20"><path d="M719.5,799.8383 L719.5,839.1183 L684.97,843.1183 L719.5,847.1183 L719.5,886.391 A0,0 0 0 0 719.5,886.391 L983.5,886.391 A0,0 0 0 0 983.5,886.391 L983.5,809.8383 L973.5,799.8383 L719.5,799.8383 A0,0 0 0 0 719.5,799.8383 " fill="#FEFFDD" style="stroke:#181818;stroke-width:0.5;"/><path d="M973.5,799.8383 L973.5,809.8383 L983.5,809.8383 L973.5,799.8383 " fill="#FEFFDD" style="stroke:#181818;stroke-width:0.5;"/><text fill="#000000" font-family="sans-serif" font-size="13" lengthAdjust="spacing" textLength="232" x="725.5" y="817.4066">Lock artifact snapshot aligned to the</text><text fill="#000000" font-family="sans-serif" font-size="13" lengthAdjust="spacing" textLength="217" x="725.5" y="832.7172">source Markdown version commit.</text><text fill="#000000" font-family="sans-serif" font-size="13" lengthAdjust="spacing" textLength="4" x="725.5" y="848.0277">&#160;</text><text fill="#000000" font-family="sans-serif" font-size="13" lengthAdjust="spacing" textLength="213" x="725.5" y="863.3383">Published source_history requires</text><text fill="#000000" font-family="sans-serif" font-size="13" lengthAdjust="spacing" textLength="243" x="725.5" y="878.6488">exactly one lock snapshot per version.</text></g><!--link repository to source_markdown_file_snapshot--><g id="link_repository_source_markdown_file_snapshot"><path codeLine="63" d="M183.5,293.3283 C183.5,313.5383 183.5,317.9183 183.5,336.3483 " fill="none" id="repository-source_markdown_file_snapshot" style="stroke:#181818;stroke-width:1.0;"/><line style="stroke:#181818;stroke-width:1.0;" x1="179.5" x2="187.5" y1="289.3283" y2="289.3283"/><line style="stroke:#181818;stroke-width:1.0;" x1="179.5" x2="187.5" y1="292.3283" y2="292.3283"/><line style="stroke:#181818;stroke-width:1.0;" x1="183.5" x2="183.5" y1="293.3283" y2="285.3283"/><line style="stroke:#181818;stroke-width:1.0;" x1="183.5" x2="189.5" y1="336.3483" y2="344.3483"/><line style="stroke:#181818;stroke-width:1.0;" x1="183.5" x2="177.5" y1="336.3483" y2="344.3483"/><line style="stroke:#181818;stroke-width:1.0;" x1="183.5" x2="183.5" y1="336.3483" y2="344.3483"/><line style="stroke:#181818;stroke-width:1.0;" x1="187.5" x2="179.5" y1="334.3483" y2="334.3483"/><text fill="#000000" font-family="sans-serif" font-size="13" lengthAdjust="spacing" textLength="60" x="122.5" y="311.4066">1 -&gt; 1..N</text></g><!--link source_markdown_file_snapshot to source_markdown_file_version--><g id="link_source_markdown_file_snapshot_source_markdown_file_version"><path codeLine="64" d="M338.25,494.5983 C338.25,513.5983 338.25,518.3583 338.25,538.1283 " fill="none" id="source_markdown_file_snapshot-source_markdown_file_version" style="stroke:#181818;stroke-width:1.0;"/><line style="stroke:#181818;stroke-width:1.0;" x1="334.25" x2="342.25" y1="490.5983" y2="490.5983"/><line style="stroke:#181818;stroke-width:1.0;" x1="334.25" x2="342.25" y1="493.5983" y2="493.5983"/><line style="stroke:#181818;stroke-width:1.0;" x1="338.25" x2="338.25" y1="494.5983" y2="486.5983"/><line style="stroke:#181818;stroke-width:1.0;" x1="342.25" x2="334.25" y1="542.1283" y2="542.1283"/><line style="stroke:#181818;stroke-width:1.0;" x1="342.25" x2="334.25" y1="539.1283" y2="539.1283"/><line style="stroke:#181818;stroke-width:1.0;" x1="338.25" x2="338.25" y1="538.1283" y2="546.1283"/><text fill="#000000" font-family="sans-serif" font-size="13" lengthAdjust="spacing" textLength="42" x="295.25" y="512.9266">1 -&gt; 1</text></g><!--link source_markdown_file_history to source_markdown_file_version--><g id="link_source_markdown_file_history_source_markdown_file_version"><path codeLine="65" d="M694.75,461.7483 C694.75,487.2583 694.75,505.8883 694.75,537.9383 " fill="none" id="source_markdown_file_history-source_markdown_file_version" style="stroke:#181818;stroke-width:1.0;"/><line style="stroke:#181818;stroke-width:1.0;" x1="690.75" x2="698.75" y1="457.7483" y2="457.7483"/><line style="stroke:#181818;stroke-width:1.0;" x1="690.75" x2="698.75" y1="460.7483" y2="460.7483"/><line style="stroke:#181818;stroke-width:1.0;" x1="694.75" x2="694.75" y1="461.7483" y2="453.7483"/><line style="stroke:#181818;stroke-width:1.0;" x1="694.75" x2="700.75" y1="537.9383" y2="545.9383"/><line style="stroke:#181818;stroke-width:1.0;" x1="694.75" x2="688.75" y1="537.9383" y2="545.9383"/><line style="stroke:#181818;stroke-width:1.0;" x1="694.75" x2="694.75" y1="537.9383" y2="545.9383"/><line style="stroke:#181818;stroke-width:1.0;" x1="698.75" x2="690.75" y1="535.9383" y2="535.9383"/><text fill="#000000" font-family="sans-serif" font-size="13" lengthAdjust="spacing" textLength="60" x="633.75" y="496.4166">1 -&gt; 1..N</text></g><!--link source_markdown_file_version to lock_file_snapshot--><g id="link_source_markdown_file_version_lock_file_snapshot"><path codeLine="66" d="M514.5,728.8483 C514.5,748.8483 514.5,753.7183 514.5,772.4383 " fill="none" id="source_markdown_file_version-lock_file_snapshot" style="stroke:#181818;stroke-width:1.0;"/><line style="stroke:#181818;stroke-width:1.0;" x1="510.5" x2="518.5" y1="724.8483" y2="724.8483"/><line style="stroke:#181818;stroke-width:1.0;" x1="510.5" x2="518.5" y1="727.8483" y2="727.8483"/><line style="stroke:#181818;stroke-width:1.0;" x1="514.5" x2="514.5" y1="728.8483" y2="720.8483"/><line style="stroke:#181818;stroke-width:1.0;" x1="518.5" x2="510.5" y1="776.4383" y2="776.4383"/><line style="stroke:#181818;stroke-width:1.0;" x1="518.5" x2="510.5" y1="773.4383" y2="773.4383"/><line style="stroke:#181818;stroke-width:1.0;" x1="514.5" x2="514.5" y1="772.4383" y2="780.4383"/><text fill="#000000" font-family="sans-serif" font-size="13" lengthAdjust="spacing" textLength="42" x="471.5" y="747.2166">1 -&gt; 1</text></g><!--SRC=[bLPDRzim3BtxLn3PRQW3TDW7K1G5jcxTXcv3iCkEXcmpjX1PyYYwNT3iluzEx4JviBjS38WYgVSUASgisI0KPQmUuronyiXnscYJ8y6ddr5KwXmXqvGPZFn2srgHgi1eYxoi4HnnwO8DjAnv2KyHm0ULBGfoZSrldN44lqhDsDeTIVADxSMhkpSVtzr6VwEeYvmGrivhThISWFAmMwwJlWmCYSxX2hJbjw_X-dfsVtCZ3d4iduQCx7WcRGjP6fsXzHYQsYp9l34ciQewtd6FLlWVMWzTAwLjOfGj6bNiRSmTBNoFJTQU5ONhZ50nvedYCAgfynFMkl7bWJ5Goxk6CamgHOjSG2TpRJ0fjT_gD-RGAJhcCgpn0vBNpYQPL9Ytt9w3raKDG-iSng3r9mz2EuVItIPk8CHRLVlIyScOp5MLviINAgpNndfSHr9s4RH0JPXZXjuxIlwJPTj8JNPcp7C5wHaELwJt62l9QPtsQp9qSJirQyNblewMqUv9E2UnLKh4tRkRgSkN9o-7STdY1CjZSqVjUEFi7ZlPcsSmN1yUDfJG2KRWQXN7gwTdwdG5aqk8R-1oElqnYSPzrmbNurTncsyWMJzDni0TvHh6rhjsq4vKAm0KMSS8f8kImSs37kjczgxXj0SkiQq9abK6kiSEPlVJQ6yaNmI3-0AKpOCHhAXzmJvh_jAauTFqVlOLM5SeWxwg_LGwC8SMsI6-CVtQwxtPxWLjNy_QzvDMqWBCsXuIAYvbUNmm5qxYL9IzKojBhzEPCFemEULEanV7r2Czg5J-3mw0pLN6c_jO1IeCdtTSGud-9aOHb7MRRGiQbD75cfXhwxKL1RvtOBTCDuDsNRnPanhTrkWGAE7lHXDwyS4_SenPWhEunhCxiPPnqYKDAFm3]--></g></svg>